<svg width="485" height="115" viewBox="78 188 485 115" xmlns="http://www.w3.org/2000/svg"><path d="M132.609 288.938C128.556 290.499 124.426 291.427 120.218 291.721C111.869 292.305 105.053 290.568 99.7701 286.511C94.1842 282.211 91.0978 275.865 90.5109 267.471C89.8964 258.684 92.0814 251.825 97.066 246.896C101.577 242.441 107.942 239.926 116.16 239.351C120.279 239.063 124.632 239.419 129.216 240.42L130.448 258.039C127.352 256.912 124.522 256.439 121.958 256.618C119.767 256.771 118.063 257.749 116.845 259.552C115.727 261.194 115.242 263.077 115.391 265.203C115.544 267.394 116.292 269.269 117.634 270.827C119.123 272.595 120.952 273.403 123.122 273.251C126.211 273.035 128.949 272.183 131.333 270.695L132.609 288.938Z" fill="#EE6F04"/><path d="M199.971 285.318L177.75 286.872L175.189 250.253L164.506 251L165.956 271.742C166.734 282.875 161.481 288.836 150.195 289.625C145.834 289.93 142.001 289.603 138.697 288.645L139.316 275.29C140.495 275.78 141.775 275.977 143.156 275.88C143.989 275.822 144.554 275.408 144.853 274.638C145.183 273.69 145.261 271.967 145.086 269.469L142.907 238.307L196.422 234.565L199.971 285.318Z" fill="#EE6F04"/><path d="M275.172 280.06L252.031 281.678L248.789 273.118L232.091 274.286L230.072 283.213L206.898 284.834L221.264 232.827L253.708 230.559L275.172 280.06ZM244.442 261.497L238.468 245.498L234.745 262.175L244.442 261.497Z" fill="#EE6F04"/><path d="M344.486 284.957L328.314 286.088L327.635 276.391L294.797 278.687L295.475 288.384L279.302 289.515L277.691 266.472C279.773 266.327 281.27 265.385 282.184 263.648C283.248 261.547 283.611 258.076 283.272 253.233L281.551 228.612L335.065 224.87L337.681 262.277L342.875 261.914L344.486 284.957ZM315.46 263.831L313.789 239.934L303.106 240.681L304.08 254.618C304.41 259.33 303.47 262.732 301.26 264.824L315.46 263.831Z" fill="#EE6F04"/><path d="M413.11 270.414L385.958 272.313L372.222 249.721L373.861 273.159L351.64 274.712L348.091 223.959L370.312 222.405L371.808 243.804L383.559 221.479L408.476 219.736L393.08 244.266L413.11 270.414Z" fill="#EE6F04"/><path d="M477.268 265.928L454.653 267.509L453.014 244.072L439.893 268.541L419.71 269.953L416.161 219.199L438.777 217.617L440.471 241.844L453.438 216.592L473.719 215.174L477.268 265.928Z" fill="#EE6F04"/><path d="M526.916 196.755C527.425 204.03 522.956 207.998 513.511 208.659C504.088 209.318 499.122 206.009 498.613 198.734L508.311 198.056C508.537 201.299 510.13 202.817 513.088 202.61C516.069 202.402 517.446 200.676 517.219 197.433L526.916 196.755ZM546.083 261.116L523.467 262.697L521.828 239.26L508.708 263.729L488.525 265.14L484.976 214.387L507.591 212.805L509.285 237.032L522.252 211.78L542.534 210.362L546.083 261.116Z" fill="#EE6F04"/></svg>